<svg width="32" height="32" viewBox="0 0 32 32" fill="none" xmlns="http://www.w3.org/2000/svg">
<path d="M28.8533 17.3333C28.6608 17.1742 28.4275 17.0724 28.18 17.0394C27.9325 17.0064 27.6807 17.0435 27.4533 17.1466C26.0434 17.7918 24.5104 18.1239 22.9599 18.12C20.0917 18.1165 17.3412 16.9792 15.3081 14.9561C13.275 12.933 12.1242 10.1881 12.1066 7.31998C12.1127 6.42109 12.2246 5.52604 12.4399 4.65331C12.4856 4.4207 12.4685 4.1801 12.3903 3.95632C12.3121 3.73253 12.1756 3.53365 11.9949 3.38015C11.8143 3.22666 11.5959 3.12411 11.3625 3.08306C11.129 3.04202 10.8888 3.06397 10.6666 3.14664C8.57637 4.08652 6.75936 5.54232 5.38628 7.37729C4.0132 9.21225 3.12911 11.3661 2.81707 13.6366C2.50503 15.9071 2.77528 18.2196 3.60243 20.357C4.42958 22.4943 5.78649 24.3864 7.54567 25.8553C9.30485 27.3242 11.4086 28.3218 13.6592 28.7544C15.9098 29.187 18.2335 29.0404 20.4119 28.3283C22.5903 27.6162 24.5519 26.3621 26.1125 24.6837C27.673 23.0053 28.7814 20.9577 29.3333 18.7333C29.4005 18.4786 29.3908 18.2098 29.3054 17.9606C29.2199 17.7114 29.0626 17.4932 28.8533 17.3333ZM16.1866 26.2533C13.9489 26.2375 11.7709 25.5305 9.95059 24.229C8.13031 22.9274 6.75682 21.0951 6.01818 18.9828C5.27954 16.8705 5.21185 14.5816 5.82439 12.4293C6.43693 10.2771 7.69975 8.36678 9.43994 6.95998V7.31998C9.44347 10.9046 10.869 14.3414 13.4038 16.8762C15.9385 19.4109 19.3753 20.8364 22.9599 20.84C23.9011 20.8434 24.8399 20.7451 25.7599 20.5466C24.8398 22.2873 23.4619 23.7438 21.7748 24.7588C20.0877 25.7739 18.1555 26.3091 16.1866 26.3066V26.2533Z" fill="#F37725"/>
</svg>
