<svg width="32" height="32" viewBox="0 0 32 32" fill="none" xmlns="http://www.w3.org/2000/svg">
<path d="M15.9999 5.33331C10.1087 5.33331 5.33325 10.1088 5.33325 16C5.33325 21.8912 10.1087 26.6666 15.9999 26.6666C21.8911 26.6666 26.6666 21.8912 26.6666 16C26.6666 10.1088 21.8911 5.33331 15.9999 5.33331ZM15.9999 22.4C12.465 22.4 9.59992 19.536 9.59992 16C9.59992 12.4661 12.465 9.59998 15.9999 9.59998C19.5349 9.59998 22.3999 12.4661 22.3999 16C22.3999 19.536 19.5338 22.4 15.9999 22.4Z" fill="#F37725"/>
<path d="M16 4.26667C17.1782 4.26667 18.1334 3.31154 18.1334 2.13333C18.1334 0.955126 17.1782 0 16 0C14.8218 0 13.8667 0.955126 13.8667 2.13333C13.8667 3.31154 14.8218 4.26667 16 4.26667Z" fill="#F37725"/>
<path d="M16 32C17.1782 32 18.1334 31.0449 18.1334 29.8667C18.1334 28.6885 17.1782 27.7333 16 27.7333C14.8218 27.7333 13.8667 28.6885 13.8667 29.8667C13.8667 31.0449 14.8218 32 16 32Z" fill="#F37725"/>
<path d="M7.70359 4.68693C6.87052 3.85387 5.52012 3.85387 4.68706 4.68693C3.85399 5.52 3.85399 6.8704 4.68706 7.70453C5.52012 8.5376 6.87052 8.5376 7.70359 7.70453C8.53666 6.8704 8.53666 5.52 7.70359 4.68693ZM27.3132 24.2965C28.1463 25.1285 28.1463 26.4811 27.3132 27.3131C26.4801 28.1461 25.1297 28.1451 24.2967 27.3131C23.4636 26.48 23.4636 25.1296 24.2967 24.2965C25.1308 23.4645 26.4801 23.4635 27.3132 24.2965Z" fill="#F37725"/>
<path d="M2.13333 18.1333C3.31154 18.1333 4.26667 17.1782 4.26667 16C4.26667 14.8218 3.31154 13.8666 2.13333 13.8666C0.955126 13.8666 0 14.8218 0 16C0 17.1782 0.955126 18.1333 2.13333 18.1333Z" fill="#F37725"/>
<path d="M29.8667 18.1333C31.0449 18.1333 32.0001 17.1782 32.0001 16C32.0001 14.8218 31.0449 13.8666 29.8667 13.8666C28.6885 13.8666 27.7334 14.8218 27.7334 16C27.7334 17.1782 28.6885 18.1333 29.8667 18.1333Z" fill="#F37725"/>
<path d="M27.3121 7.70347C28.1452 6.8704 28.1452 5.52 27.3132 4.68693C26.4801 3.85387 25.1287 3.85387 24.2956 4.68693C23.4636 5.52 23.4625 6.8704 24.2956 7.70347C25.1297 8.53653 26.4801 8.53653 27.3121 7.70347ZM7.70359 27.3131C6.87052 28.1461 5.52012 28.1461 4.68706 27.3131C3.85399 26.48 3.85399 25.1296 4.68706 24.2965C5.52012 23.4635 6.87052 23.4635 7.70359 24.2965C8.53559 25.1307 8.53666 26.48 7.70359 27.3131Z" fill="#F37725"/>
</svg>
